<?xml version="1.0" encoding="UTF-8" standalone="no"?>
<!-- Created with Inkscape (http://www.inkscape.org/) -->

<svg
   xmlns:dc="http://purl.org/dc/elements/1.1/"
   xmlns:cc="http://creativecommons.org/ns#"
   xmlns:rdf="http://www.w3.org/1999/02/22-rdf-syntax-ns#"
   xmlns:svg="http://www.w3.org/2000/svg"
   xmlns="http://www.w3.org/2000/svg"
   version="1.1"
   width="1000"
   height="1000"
   id="svg3121">
  <metadata
     id="metadata3127">
    <rdf:RDF>
      <cc:Work
         rdf:about="">
        <dc:format>image/svg+xml</dc:format>
        <dc:type
           rdf:resource="http://purl.org/dc/dcmitype/StillImage" />
        <dc:title></dc:title>
      </cc:Work>
    </rdf:RDF>
  </metadata>
  <defs
     id="defs3125" />
  <g
     id="g3168">
    <path
       d="M 0,500 0,0 l 500,0 500,0 0,500 0,500 -500,0 -500,0 0,-500 z"
       id="path3172"
       style="fill:#A34D88" />
    <path
       d="M 0,500 0,0 l 500,0 500,0 0,500 0,500 -500,0 -500,0 0,-500 z m 505.74971,468.75 c 1.34284,-1.68768 104.44775,-356.65763 103.99213,-358.02449 -0.29086,-0.87256 -74.20335,61.9162 -141.24184,119.9851 -7.15,6.19335 -13.86012,11.2671 -14.91138,11.27501 -2.46741,0.0186 -339.64525,-128.88955 -341.45694,-130.54408 -0.75258,-0.68729 -1.06353,-1.7428 -0.69099,-2.34558 0.48825,-0.79 70.10525,-1.08719 249.36833,-1.06454 l 248.69098,0.0314 1.60488,2.21857 C 612.54672,612.2746 683,827.63546 683,830.04967 c 0,0.55153 -23.85,31.68503 -53,69.18556 -29.15,37.50053 -53,68.76373 -53,69.47378 0,1.00232 3.63358,1.28757 16.25,1.27568 8.9375,-0.008 16.73787,-0.34592 17.33416,-0.75 0.59628,-0.40408 19.41607,-23.68469 41.82176,-51.73469 28.76401,-36.01008 41.37783,-51.07927 42.91584,-51.26969 1.19803,-0.14833 62.84891,17.28917 137.00196,38.75 C 906.47676,926.44114 968.01426,944 969.07372,944 970.92849,944 971,942.98435 971,916.64179 l 0,-27.35821 -177.95154,-139.8157 C 695.17512,672.56925 615.32667,609.28045 615.60748,608.8261 615.88828,608.37174 663.75007,608 721.96701,608 l 105.84897,0 70.43891,106.69897 c 38.7414,58.68443 70.9578,106.87193 71.59201,107.08333 1.63746,0.54582 1.62294,-43.0355 -0.0154,-46.09804 C 969.18888,774.48292 945.0102,736.825 916.10115,692 c -33.75755,-52.34285 -52.56048,-82.39439 -52.5579,-84 0.003,-1.59675 18.99732,-31.95401 52.57328,-84.0222 28.9131,-44.83721 53.08997,-82.49512 53.72637,-83.68426 1.73593,-3.24361 1.64588,-105.29612 -0.0929,-105.28694 -0.6875,0.004 -80.225,60.36187 -176.75,134.12944 -96.525,73.76756 -176.52654,134.80054 -177.78121,135.62886 -1.25466,0.82831 -2.49667,1.29055 -2.76002,1.02721 -0.72231,-0.72232 57.5397,-198.10375 58.8929,-199.51877 0.64519,-0.67466 66.86751,-23.78562 147.1607,-51.3577 80.2932,-27.57207 147.45013,-50.73461 149.23763,-51.47231 l 3.25,-1.34128 0,-12.05102 C 971,279.22974 970.821,278 969.24588,278 c -0.96477,0 -63.13145,20.46035 -138.14819,45.46743 -75.01673,25.00709 -136.67238,45.29543 -137.01255,45.08519 C 693.74497,368.34238 636.54915,292.78209 566.98332,200.64086 497.4175,108.49963 439.9375,33.086296 439.25,33.055675 438.25385,33.011306 438,75.02517 438,239.94098 c 0,164.45643 -0.25662,207.10639 -1.25,207.74667 -0.6875,0.44312 -91.7,36.39232 -202.25,79.8871 -127.70022,50.24237 -201,79.56908 -201,80.41865 0,0.85254 73.21734,29.8212 202,79.92191 L 437.5,766.5 437.74744,867 c 0.13609,55.275 0.45947,101.0625 0.71861,101.75 0.3638,0.96513 7.97093,1.25 33.38012,1.25 25.13003,0 33.14404,-0.29547 33.90354,-1.25 z M 606.01664,603.39771 C 595.09407,594.31152 470.79298,487.05329 467.25,483.65728 l -4.25,-4.0737 0,-181.32317 c 0,-162.50598 0.16014,-181.38463 1.54313,-181.91533 0.84872,-0.32569 1.79084,-0.34444 2.09361,-0.0417 0.96454,0.96454 143.3628,487.13646 143.10777,488.59431 -0.17322,0.99017 -1.26016,0.55281 -3.72787,-1.5 z"
       id="path3170"
       style="fill:#222122" />
  </g>
</svg>
