<?xml version="1.0" standalone="no"?>
<!DOCTYPE svg PUBLIC "-//W3C//DTD SVG 1.1//EN" "http://www.w3.org/Graphics/SVG/1.1/DTD/svg11.dtd">
<svg width="100%" height="100%" viewBox="0 0 4950 1000" version="1.1" xmlns="http://www.w3.org/2000/svg" xmlns:xlink="http://www.w3.org/1999/xlink" xml:space="preserve" style="fill-rule:evenodd;clip-rule:evenodd;stroke-linejoin:round;stroke-miterlimit:1.41421;">
    <g id="g3168">
        <rect id="path3172" x="0" y="0" width="1000" height="1000" style="fill:#a34d88;fill-rule:nonzero;"/>
        <path id="path3170" d="M2.27374e-13,500l0,-500l1000,0l0,1000l-500,0l-500,0l0,-500ZM505.75,968.75c1.34284,-1.68768 104.448,-356.658 103.992,-358.024c-0.29086,-0.87256 -74.2034,61.9162 -141.242,119.985c-7.15,6.19335 -13.8601,11.2671 -14.9114,11.275c-2.46741,0.0186 -339.645,-128.89 -341.457,-130.544c-0.75258,-0.68729 -1.06353,-1.7428 -0.69099,-2.34558c0.48825,-0.79 70.1053,-1.08719 249.368,-1.06454l248.691,0.0314l1.60488,2.21857c1.44184,1.99321 71.8951,217.354 71.8951,219.768c0,0.55153 -23.85,31.685 -53,69.1856c-29.15,37.5005 -53,68.7637 -53,69.4738c0,1.00232 3.63358,1.28757 16.25,1.27568c8.9375,-0.008 16.7379,-0.34592 17.3342,-0.75c0.59628,-0.40408 19.4161,-23.6847 41.8218,-51.7347c28.764,-36.0101 41.3778,-51.0793 42.9158,-51.2697c1.19803,-0.14833 62.8489,17.2892 137.002,38.75c74.153,21.4608 135.691,39.0197 136.75,39.0197c1.85477,0 1.92628,-1.01565 1.92628,-27.3582l0,-27.3582l-177.952,-139.816c-97.8733,-76.8986 -177.722,-140.187 -177.441,-140.642c0.2808,-0.45436 48.1426,-0.8261 106.36,-0.8261l105.849,0l70.4389,106.699c38.7414,58.6844 70.9578,106.872 71.592,107.083c1.63746,0.54582 1.62294,-43.0355 -0.0154,-46.098c-0.64262,-1.20134 -24.8213,-38.8593 -53.7303,-83.6843c-33.7576,-52.3428 -52.5605,-82.3944 -52.5579,-84c0.003,-1.59675 18.9973,-31.954 52.5733,-84.0222c28.9131,-44.8372 53.09,-82.4951 53.7264,-83.6843c1.73593,-3.24361 1.64588,-105.296 -0.0929,-105.287c-0.6875,0.004 -80.225,60.3619 -176.75,134.129c-96.525,73.7676 -176.527,134.801 -177.781,135.629c-1.25466,0.82831 -2.49667,1.29055 -2.76002,1.02721c-0.72231,-0.72232 57.5397,-198.104 58.8929,-199.519c0.64519,-0.67466 66.8675,-23.7856 147.161,-51.3577c80.2932,-27.5721 147.45,-50.7346 149.238,-51.4723l3.25,-1.34128l0,-12.051c2.27374e-13,-10.8213 -0.179,-12.051 -1.75412,-12.051c-0.96477,0 -63.1314,20.4603 -138.148,45.4674c-75.0167,25.0071 -136.672,45.2954 -137.013,45.0852c-0.34017,-0.21024 -57.536,-75.7705 -127.102,-167.912c-69.5658,-92.1412 -127.046,-167.555 -127.733,-167.585c-0.99615,-0.044369 -1.25,41.9695 -1.25,206.885c0,164.456 -0.25662,207.106 -1.25,207.747c-0.6875,0.44312 -91.7,36.3923 -202.25,79.8871c-127.7,50.2424 -201,79.5691 -201,80.4186c0,0.85254 73.2173,29.8212 202,79.9219l202,78.5847l0.24744,100.5c0.13609,55.275 0.45947,101.062 0.71861,101.75c0.3638,0.96513 7.97093,1.25 33.3801,1.25c25.13,0 33.144,-0.29547 33.9035,-1.25ZM606.017,603.398c-10.9226,-9.08619 -135.224,-116.344 -138.767,-119.74l-4.25,-4.0737l0,-181.323c0,-162.506 0.16014,-181.385 1.54313,-181.915c0.84872,-0.32569 1.79084,-0.34444 2.09361,-0.0417c0.96454,0.96454 143.363,487.136 143.108,488.594c-0.17322,0.99017 -1.26016,0.55281 -3.72787,-1.5l1.13687e-13,2e-05Z" style="fill:#222122;fill-rule:nonzero;"/>
        <text x="1272.75px" y="794.912px" style="font-family:sansation_lightlight;font-size:735.926px;font-weight:300;fill:#efefef;">W<tspan x="1964.85px 2409.21px 2581.41px 2974.3px 3390.52px 3860.8px 4277.03px 4512.17px " y="794.912px 794.912px 794.912px 794.912px 794.912px 794.912px 794.912px 794.912px ">olﬁeZero</tspan></text>
    </g>
</svg>
